<?xml version="1.0" encoding="UTF-8"?>
<svg id="Layer_1" xmlns="http://www.w3.org/2000/svg" version="1.1" viewBox="0 0 500.64 319.9">
  <!-- Generator: Adobe Illustrator 29.6.1, SVG Export Plug-In . SVG Version: 2.1.1 Build 9)  -->
  <defs>
    <style>
      .st0 {
        fill: #fff;
      }
    </style>
  </defs>
  <path class="st0" d="M59.99,120.81c3.53,0,7.87-1.18,7.87-5.46s-3.75-6.1-8.94-6.1h-3.91v11.57h4.98ZM58.27,103.84c4.18,0,7.87-1.34,7.87-5.14,0-3.59-2.84-4.66-7.18-4.66h-3.96v9.8h3.27ZM48.9,88.69h9.74c7.71,0,13.71,2.04,13.71,9.69,0,3.96-2.14,6.43-4.44,7.76,2.73,1.34,6.16,4.55,6.16,8.94,0,10.12-10.12,11.08-15.04,11.08h-10.12v-37.48Z"/>
  <path class="st0" d="M79.74,101h5.78v1.55c1.55-1.45,3.37-1.98,5.62-1.98.96,0,3,.38,4.07,1.02l-2.89,4.6c-.7-.27-1.29-.37-2.2-.37-2.25,0-4.07,1.93-4.6,3.16v17.19h-5.78v-25.16Z"/>
  <path class="st0" d="M98.86,101h5.78v25.16h-5.78v-25.16ZM98.27,92.76c0-1.93,1.39-3.43,3.53-3.43s3.53,1.5,3.53,3.43-1.39,3.43-3.53,3.43-3.53-1.5-3.53-3.43"/>
  <path class="st0" d="M112.19,118.13v-12.1h-3v-5.03h3v-7.5h5.78v7.5h7.76l-1.39,5.03h-6.37v12.05c0,2.78.96,3.53,3.27,3.53.7,0,2.57-.16,4.6-1.12l-1.44,5.41c-1.34.37-3,.64-4.98.64-5.25,0-7.23-2.94-7.23-8.41"/>
  <path class="st0" d="M130.12,101h5.78v25.16h-5.78v-25.16ZM129.53,92.76c0-1.93,1.39-3.43,3.53-3.43s3.53,1.5,3.53,3.43-1.39,3.43-3.53,3.43-3.53-1.5-3.53-3.43"/>
  <path class="st0" d="M141.79,124.02v-5.89c3.21,2.19,6.43,3.64,8.89,3.64,1.61,0,3.75-.16,3.75-2.68,0-1.34-1.77-2.3-4.44-3.59l-1.71-.8c-3.37-1.5-6.26-3.21-6.26-7.12,0-4.93,4.39-7.07,9.16-7.07,4.39,0,6.64.96,8.25,2.14v5.73c-1.23-1.34-4.61-3.05-7.33-3.05s-4.34.75-4.34,2.14c0,1.02,1.34,1.82,3.16,2.62l1.93.86c4.98,2.25,7.5,3.75,7.5,7.82,0,7.5-8.46,7.87-9.32,7.87-3.64,0-6.1-.75-9.21-2.62"/>
  <path class="st0" d="M165.83,88.69h5.78v14.03c2.41-1.93,5.19-2.2,6.43-2.2,9.58,0,10.12,7.44,10.12,12.05v13.6h-5.78v-13.92c0-4.02-1.23-6.64-5.03-6.64-1.87,0-4.55,1.5-5.73,3.48v17.08h-5.78v-37.48Z"/>
  <path class="st0" d="M70.13,203.37c17.44-.1,28.75-9.86,28.75-26.88s-9.24-25.01-26.47-25.01h-11.83v51.89h9.55ZM48.75,141.1h24.08c22.11,0,37.88,10.69,37.88,35.39,0,21.8-14.53,37.26-40.17,37.26h-21.79v-72.65Z"/>
  <path class="st0" d="M120.98,231.91l-1.66-9.96c2.91,1.45,4.57,1.77,6.64,1.77,2.7,0,4.78-1.56,6.54-5.92l2.6-6.54-18.58-46.29h12.25l12.45,31.45,13.18-31.45h12.04l-23.77,55.84c-3.01,7.58-6.12,12.35-15.15,12.35-1.24,0-3.63-.1-6.54-1.25"/>
  <path class="st0" d="M169.76,209.6v-11.42c6.23,4.26,12.45,7.06,17.23,7.06,3.11,0,7.27-.31,7.27-5.19,0-2.6-3.42-4.46-8.61-6.95l-3.32-1.56c-6.54-2.91-12.14-6.23-12.14-13.8,0-9.55,8.51-13.7,17.75-13.7,8.51,0,12.87,1.87,15.98,4.15v11.11c-2.39-2.6-8.93-5.92-14.22-5.92s-8.41,1.45-8.41,4.15c0,1.97,2.6,3.53,6.12,5.09l3.74,1.66c9.65,4.36,14.53,7.27,14.53,15.15,0,14.53-16.4,15.26-18.06,15.26-7.06,0-11.83-1.45-17.85-5.09"/>
  <path class="st0" d="M216.35,204.41v-63.31h11.21v60.2c0,2.18,1.56,3.22,3.53,3.22,1.35,0,2.18-.21,3.42-.94l-2.28,9.55c-2.18.73-3.94.83-5.92.83-4.15,0-9.96-1.97-9.96-9.55"/>
  <path class="st0" d="M274.99,182.92c-.41-4.67-4.15-9.76-12.04-9.76s-12.25,5.71-12.77,9.76h24.81ZM238.67,188.73c0-13.08,8.1-24.7,24.39-24.7,19.51,0,22.83,15.46,22.83,22.21,0,1.14,0,3.53-.31,5.92h-35.6c.41,6.64,5.81,12.87,15.15,12.87,5.19,0,12.35-2.28,18.47-6.75v10.48c-4.05,2.7-10.59,5.81-18.58,5.81-14.74,0-26.36-8.82-26.36-25.84"/>
  <polygon class="st0" points="306.43 189.05 288.58 164.97 302.08 164.97 313.49 181.16 324.91 164.97 338.4 164.97 320.55 188.94 338.92 213.75 325.64 213.75 313.49 196.83 301.25 213.75 287.96 213.75 306.43 189.05"/>
  <g>
    <path class="st0" d="M346.49,164.97h11.21v48.78h-11.21v-48.78ZM345.35,148.98c0-3.74,2.7-6.64,6.85-6.64s6.85,2.91,6.85,6.64-2.7,6.64-6.85,6.64-6.85-2.91-6.85-6.64"/>
    <path class="st0" d="M403.01,189.48c0-3.63-.02-7.26.02-10.89,0-.6-.2-.95-.65-1.28-3.73-2.71-7.88-3.7-12.41-2.99-4.94.78-8.55,3.44-10.6,8.02-1.94,4.34-1.95,8.83-.56,13.32,1.08,3.5,3.3,6.11,6.61,7.72,3.02,1.48,6.23,1.86,9.54,1.41,2.84-.39,5.42-1.41,7.64-3.28.3-.25.43-.52.43-.93-.02-3.7,0-7.4,0-11.1M414.23,212.26c-3.7.83-7.38,1.65-11.11,2.49v-2.95c-.15.07-.26.1-.35.16-2.52,1.67-5.33,2.52-8.3,2.78-4.37.39-8.64-.13-12.75-1.69-7.03-2.68-11.7-7.67-13.84-14.86-2.15-7.2-1.74-14.29,1.67-21.05,3.17-6.29,8.3-10.29,15.09-12.06,5.25-1.37,10.5-1.46,15.67.49.9.34,1.77.77,2.68,1.18v-1.66h11.24v47.17Z"/>
  </g>
  <path class="st0" d="M166.78,253.83l-5.09-11.35-5.09,11.35h10.17ZM159.5,233.27h4.39l16.71,37.48h-6.59l-5.14-11.67h-14.4l-5.09,11.67h-6.59l16.71-37.48Z"/>
  <path class="st0" d="M182.84,268.61v-5.89c3.21,2.2,6.43,3.64,8.89,3.64,1.61,0,3.75-.16,3.75-2.68,0-1.34-1.77-2.3-4.44-3.59l-1.71-.8c-3.37-1.5-6.26-3.21-6.26-7.12,0-4.92,4.39-7.07,9.16-7.07,4.39,0,6.64.96,8.25,2.14v5.73c-1.23-1.34-4.6-3.05-7.33-3.05s-4.34.75-4.34,2.14c0,1.02,1.34,1.82,3.16,2.62l1.93.86c4.98,2.25,7.5,3.75,7.5,7.82,0,7.5-8.46,7.87-9.32,7.87-3.64,0-6.1-.75-9.21-2.62"/>
  <path class="st0" d="M205.49,268.61v-5.89c3.21,2.2,6.43,3.64,8.89,3.64,1.61,0,3.75-.16,3.75-2.68,0-1.34-1.77-2.3-4.44-3.59l-1.71-.8c-3.37-1.5-6.26-3.21-6.26-7.12,0-4.92,4.39-7.07,9.16-7.07,4.39,0,6.64.96,8.25,2.14v5.73c-1.23-1.34-4.6-3.05-7.33-3.05s-4.34.75-4.34,2.14c0,1.02,1.34,1.82,3.16,2.62l1.93.86c4.98,2.25,7.5,3.75,7.5,7.82,0,7.5-8.46,7.87-9.32,7.87-3.64,0-6.1-.75-9.21-2.62"/>
  <path class="st0" d="M249.39,258.11c0-4.87-3.59-7.98-7.92-7.98s-7.92,3.1-7.92,7.98,3.59,8.03,7.92,8.03,7.92-3.16,7.92-8.03M227.76,258.11c0-7.01,4.98-13.06,13.71-13.06s13.71,6.05,13.71,13.06-4.98,13.06-13.71,13.06-13.71-6.05-13.71-13.06"/>
  <path class="st0" d="M258.92,258.22c0-7.39,5.3-13.12,13.87-13.12,3.8,0,7.18,1.12,8.94,2.3v5.41c-2.09-1.5-4.66-2.68-8.62-2.68-4.44,0-8.41,3.05-8.41,8.08s3.8,7.98,8.51,7.98c3.59,0,6.75-1.77,8.51-3.37v5.84c-1.45,1.02-4.39,2.52-8.94,2.52-8.51,0-13.87-5.62-13.87-12.96"/>
  <path class="st0" d="M287.67,245.58h5.78v25.16h-5.78v-25.16ZM287.08,237.34c0-1.93,1.39-3.43,3.53-3.43s3.53,1.5,3.53,3.43-1.39,3.43-3.53,3.43-3.53-1.5-3.53-3.43"/>
  <path class="st0" d="M331.29,262.72v-12.1h-3v-5.03h3v-7.5h5.78v7.5h7.76l-1.39,5.03h-6.37v12.05c0,2.79.96,3.53,3.27,3.53.7,0,2.57-.16,4.6-1.12l-1.45,5.41c-1.34.37-3,.64-4.98.64-5.25,0-7.23-2.94-7.23-8.41"/>
  <path class="st0" d="M349.22,245.58h5.78v25.16h-5.78v-25.16ZM348.63,237.34c0-1.93,1.39-3.43,3.53-3.43s3.53,1.5,3.53,3.43-1.39,3.43-3.53,3.43-3.53-1.5-3.53-3.43"/>
  <path class="st0" d="M382.15,258.11c0-4.87-3.59-7.98-7.92-7.98s-7.92,3.1-7.92,7.98,3.59,8.03,7.92,8.03,7.92-3.16,7.92-8.03M360.52,258.11c0-7.01,4.98-13.06,13.71-13.06s13.71,6.05,13.71,13.06-4.98,13.06-13.71,13.06-13.71-6.05-13.71-13.06"/>
  <path class="st0" d="M392.41,245.58h5.78v1.61c2.62-1.82,5.14-2.09,6.43-2.09,9.58,0,10.12,7.23,10.12,11.99v13.65h-5.78v-13.97c0-3.96-1.18-6.59-5.03-6.59-2.36,0-4.39,1.55-5.73,3.69v16.87h-5.78v-25.16Z"/>
  <path class="st0" d="M317.32,258.02c0-1.87,0-3.74,0-5.6,0-.31-.1-.49-.34-.66-1.92-1.39-4.05-1.9-6.38-1.54-2.54.4-4.4,1.77-5.45,4.12-1,2.23-1,4.54-.29,6.85.56,1.8,1.7,3.14,3.4,3.97,1.55.76,3.2.96,4.91.73,1.46-.2,2.79-.73,3.93-1.69.16-.13.22-.27.22-.48,0-1.9,0-3.81,0-5.71M323.1,269.73c-1.9.43-3.8.85-5.72,1.28v-1.52l-.18.08c-1.3.86-2.74,1.3-4.27,1.43-2.25.2-4.45-.07-6.56-.87-3.61-1.38-6.02-3.95-7.12-7.64-1.1-3.7-.9-7.35.86-10.83,1.63-3.24,4.27-5.29,7.77-6.21,2.7-.7,5.4-.75,8.06.25.46.17.91.4,1.38.61v-.85h5.78v24.27Z"/>
  <g>
    <path class="st0" d="M357.77,69.17v15.15s17.79,0,17.79,0c.39,0,.78.08,1.17.11.43.04.86.05,1.29.12.63.1,1.24.28,1.85.46.16.05.33.09.49.15,1.48.49,2.88,1.21,4.17,2.16-.21-1.52-.35-3.06-.35-4.61,0-3.9.66-7.73,1.98-11.39.02-.07.06-.14.09-.21-1.64-.62-3.31-1.08-5.01-1.41-.2-.04-.4-.07-.6-.11-.76-.13-1.52-.24-2.29-.32-.16-.01-.32-.02-.49-.03-.76-.06-1.53-.11-2.3-.11h-17.79Z"/>
    <path class="st0" d="M375.58,114.5h-17.81v15.34h17.79c.7,0,1.39-.05,2.09-.1v-2.01c0-4.96,1.11-9.75,3.13-14.12-1.68.57-3.44.88-5.2.89Z"/>
    <path class="st0" d="M402.6,112.72c-3.99-2.03-7.49-4.8-10.39-8.22-.05-.06-.09-.12-.14-.18-.76.62-1.49,1.28-2.2,1.98-5.91,5.92-8.87,13.67-8.87,21.43v1.61c5.87-1.07,11.5-3.87,16.03-8.4,2.44-2.44,4.37-5.19,5.8-8.13-.07-.04-.15-.06-.22-.1Z"/>
    <path class="st0" d="M381.59,132.63c-.19.04-.38.05-.58.08v12.82s15.15,0,15.15,0v-17.78c0-.59.09-1.18.16-1.77-4.29,3.37-9.31,5.66-14.74,6.65Z"/>
    <path class="st0" d="M390.83,69.48c3.15,1.6,6.02,3.69,8.53,6.19,1.34,1.34,2.54,2.79,3.62,4.31.02-.11.07-.21.09-.32.12-.52.26-1.03.43-1.54.11-.31.23-.62.36-.92.12-.3.26-.59.4-.87.21-.41.43-.82.67-1.21.2-.32.4-.64.62-.95.19-.27.39-.52.6-.78.23-.28.46-.55.71-.81.14-.15.27-.33.42-.48l12.58-12.58-10.86-10.86-12.55,12.55c-.72.72-1.39,1.49-2.04,2.28-.15.18-.28.37-.43.55-.52.66-1.01,1.35-1.47,2.06-.11.17-.22.33-.32.5-.56.9-1.09,1.83-1.55,2.79.07.03.14.06.2.09Z"/>
    <path class="st0" d="M405.85,97.91c-3.89.71-7.67,2.18-11.1,4.43,2.59,3.05,5.77,5.57,9.36,7.4,1.36-3.81,1.94-7.83,1.73-11.83Z"/>
    <path class="st0" d="M436.98,105.94c.05.06.09.12.14.18.76-.62,1.49-1.27,2.18-1.96l12.58-12.59-10.7-10.7-12.53,12.54c-1.31,1.31-2.88,2.38-4.6,3.14,4.09,1.67,7.85,4.14,11.07,7.36.6.6,1.21,1.26,1.85,2.02Z"/>
    <path class="st0" d="M392.92,99.54c3.75-2.45,7.9-4.11,12.33-4.92.07-.01.15-.02.22-.03-.99-6.06-3.8-11.89-8.48-16.56-2.32-2.31-4.92-4.17-7.68-5.58-1.15,3.21-1.78,6.66-1.78,10.26,0,6.29,1.94,12.11,5.22,16.95.06-.04.11-.09.17-.13Z"/>
    <path class="st0" d="M426.37,127.76v17.77h15.3v-17.79c0-5.92-1.77-11.85-5.23-16.96-.06.04-.11.09-.18.13-4.57,2.99-9.77,4.78-15.17,5.3.33.28.7.51,1.01.82,2.96,2.96,4.26,6.86,4.27,10.73Z"/>
    <path class="st0" d="M417.88,113.04c6.11,0,11.8-1.82,16.55-4.93-.53-.62-1.08-1.24-1.67-1.82-5.92-5.91-13.68-8.87-21.43-8.87-.72,0-1.45.05-2.17.1,0,.08.02.15.02.23.23,4.49-.41,8.9-1.92,13.13-.03.08-.06.14-.09.22,3.33,1.26,6.93,1.96,10.69,1.96h.02Z"/>
  </g>
</svg>