<?xml version="1.0" encoding="UTF-8"?>
<svg id="Layer_1" xmlns="http://www.w3.org/2000/svg" version="1.1" viewBox="0 0 500.64 319.9">
  <!-- Generator: Adobe Illustrator 29.6.1, SVG Export Plug-In . SVG Version: 2.1.1 Build 9)  -->
  <defs>
    <style>
      .st0 {
        fill: #587989;
      }

      .st1 {
        fill: #183b4e;
      }

      .st2 {
        fill: #7790a3;
      }

      .st3 {
        fill: #b8c5d0;
      }

      .st4 {
        fill: #11506c;
      }

      .st5 {
        fill: #196b98;
      }

      .st6 {
        fill: #085783;
      }
    </style>
  </defs>
  <g>
    <path class="st5" d="M59.71,120.93c3.52,0,7.85-1.17,7.85-5.45s-3.74-6.09-8.92-6.09h-3.9v11.54h4.97ZM58,104c4.17,0,7.85-1.33,7.85-5.13,0-3.58-2.83-4.65-7.16-4.65h-3.95v9.77h3.26ZM48.65,88.89h9.72c7.69,0,13.67,2.03,13.67,9.67,0,3.95-2.14,6.41-4.43,7.74,2.72,1.34,6.14,4.54,6.14,8.92,0,10.09-10.09,11.06-15.01,11.06h-10.09v-37.39Z"/>
    <path class="st5" d="M79.41,101.17h5.77v1.55c1.55-1.44,3.36-1.98,5.61-1.98.96,0,2.99.37,4.06,1.02l-2.88,4.59c-.7-.27-1.28-.37-2.19-.37-2.24,0-4.06,1.92-4.59,3.15v17.14h-5.77v-25.1Z"/>
    <path class="st5" d="M98.48,101.17h5.77v25.1h-5.77v-25.1ZM97.89,92.95c0-1.92,1.39-3.42,3.53-3.42s3.53,1.49,3.53,3.42-1.39,3.42-3.53,3.42-3.53-1.49-3.53-3.42"/>
    <path class="st5" d="M111.78,118.26v-12.07h-2.99v-5.02h2.99v-7.48h5.77v7.48h7.74l-1.39,5.02h-6.35v12.02c0,2.78.96,3.52,3.26,3.52.69,0,2.56-.16,4.59-1.12l-1.44,5.39c-1.34.37-2.99.64-4.97.64-5.23,0-7.21-2.94-7.21-8.38"/>
    <path class="st5" d="M129.67,101.17h5.77v25.1h-5.77v-25.1ZM129.08,92.95c0-1.92,1.39-3.42,3.53-3.42s3.53,1.49,3.53,3.42-1.39,3.42-3.53,3.42-3.53-1.49-3.53-3.42"/>
    <path class="st5" d="M141.31,124.14v-5.87c3.2,2.19,6.41,3.63,8.87,3.63,1.6,0,3.74-.16,3.74-2.67,0-1.33-1.76-2.3-4.43-3.58l-1.71-.8c-3.36-1.49-6.25-3.2-6.25-7.1,0-4.91,4.38-7.05,9.13-7.05,4.38,0,6.62.96,8.22,2.14v5.72c-1.23-1.33-4.59-3.04-7.32-3.04s-4.33.75-4.33,2.14c0,1.01,1.33,1.82,3.15,2.62l1.92.86c4.97,2.24,7.48,3.74,7.48,7.8,0,7.48-8.44,7.85-9.29,7.85-3.63,0-6.09-.75-9.19-2.62"/>
    <path class="st5" d="M165.29,88.89h5.77v13.99c2.4-1.92,5.18-2.19,6.41-2.19,9.56,0,10.09,7.42,10.09,12.02v13.57h-5.77v-13.89c0-4.01-1.23-6.62-5.02-6.62-1.87,0-4.54,1.49-5.71,3.47v17.04h-5.77v-37.39Z"/>
    <path class="st5" d="M69.83,203.28c17.39-.1,28.68-9.84,28.68-26.81s-9.21-24.95-26.4-24.95h-11.8v51.77h9.53ZM48.5,141.17h24.02c22.05,0,37.79,10.66,37.79,35.3,0,21.74-14.49,37.17-40.07,37.17h-21.74v-72.47Z"/>
    <path class="st5" d="M120.55,231.75l-1.66-9.94c2.9,1.45,4.55,1.76,6.63,1.76,2.69,0,4.76-1.55,6.52-5.9l2.59-6.52-18.53-46.17h12.22l12.42,31.37,13.15-31.37h12.01l-23.71,55.7c-3,7.56-6.11,12.32-15.12,12.32-1.24,0-3.62-.1-6.52-1.24"/>
    <path class="st5" d="M169.2,209.5v-11.39c6.21,4.25,12.42,7.04,17.19,7.04,3.11,0,7.25-.31,7.25-5.18,0-2.59-3.42-4.45-8.59-6.94l-3.31-1.55c-6.52-2.9-12.11-6.21-12.11-13.77,0-9.53,8.49-13.67,17.7-13.67,8.49,0,12.84,1.86,15.94,4.14v11.08c-2.38-2.59-8.9-5.9-14.18-5.9s-8.39,1.45-8.39,4.14c0,1.97,2.59,3.52,6.11,5.07l3.73,1.66c9.63,4.35,14.49,7.25,14.49,15.12,0,14.49-16.36,15.22-18.01,15.22-7.04,0-11.8-1.45-17.81-5.07"/>
    <path class="st5" d="M215.68,204.32v-63.15h11.18v60.05c0,2.17,1.55,3.21,3.52,3.21,1.35,0,2.17-.21,3.42-.93l-2.28,9.53c-2.17.72-3.93.83-5.9.83-4.14,0-9.94-1.97-9.94-9.53"/>
    <path class="st5" d="M274.18,182.89c-.41-4.66-4.14-9.73-12.01-9.73s-12.22,5.7-12.73,9.73h24.74ZM237.94,188.69c0-13.04,8.08-24.64,24.33-24.64,19.46,0,22.78,15.43,22.78,22.16,0,1.14,0,3.52-.31,5.9h-35.51c.41,6.63,5.8,12.84,15.12,12.84,5.18,0,12.32-2.28,18.43-6.73v10.46c-4.04,2.69-10.56,5.8-18.53,5.8-14.7,0-26.3-8.8-26.3-25.78"/>
    <polygon class="st5" points="305.54 189 287.73 164.98 301.19 164.98 312.58 181.13 323.97 164.98 337.43 164.98 319.62 188.89 337.95 213.64 324.69 213.64 312.58 196.76 300.37 213.64 287.11 213.64 305.54 189"/>
    <g>
      <path class="st5" d="M345.5,164.98h11.18v48.66h-11.18v-48.66ZM344.36,149.03c0-3.73,2.69-6.63,6.83-6.63s6.83,2.9,6.83,6.63-2.69,6.63-6.83,6.63-6.83-2.9-6.83-6.63"/>
      <path class="st5" d="M401.87,189.43c0-3.62-.02-7.24.02-10.86,0-.59-.2-.95-.65-1.28-3.72-2.71-7.86-3.69-12.38-2.98-4.93.78-8.53,3.43-10.58,8-1.93,4.33-1.94,8.81-.56,13.29,1.08,3.49,3.29,6.09,6.59,7.7,3.01,1.47,6.21,1.86,9.52,1.41,2.83-.39,5.41-1.41,7.62-3.27.3-.25.43-.52.43-.93-.02-3.69,0-7.38,0-11.07M413.07,212.15c-3.69.83-7.37,1.65-11.08,2.48v-2.95c-.15.07-.26.1-.35.16-2.51,1.66-5.32,2.51-8.28,2.78-4.35.38-8.62-.13-12.71-1.69-7.01-2.68-11.67-7.65-13.81-14.82-2.14-7.18-1.74-14.25,1.66-21,3.16-6.28,8.28-10.27,15.06-12.03,5.23-1.36,10.48-1.46,15.63.49.9.34,1.76.77,2.68,1.17v-1.66h11.21v47.06Z"/>
    </g>
    <path class="st5" d="M166.23,253.62l-5.07-11.32-5.07,11.32h10.15ZM158.97,233.11h4.38l16.66,37.39h-6.57l-5.13-11.64h-14.37l-5.07,11.64h-6.57l16.66-37.39Z"/>
    <path class="st5" d="M182.25,268.36v-5.88c3.2,2.19,6.41,3.63,8.87,3.63,1.6,0,3.74-.16,3.74-2.67,0-1.34-1.76-2.3-4.43-3.58l-1.71-.8c-3.36-1.49-6.25-3.2-6.25-7.1,0-4.91,4.38-7.05,9.13-7.05,4.38,0,6.62.96,8.22,2.14v5.71c-1.23-1.33-4.59-3.04-7.32-3.04s-4.33.75-4.33,2.14c0,1.02,1.33,1.82,3.15,2.62l1.92.85c4.97,2.24,7.48,3.74,7.48,7.8,0,7.48-8.44,7.85-9.29,7.85-3.63,0-6.09-.75-9.19-2.62"/>
    <path class="st5" d="M204.85,268.36v-5.88c3.2,2.19,6.41,3.63,8.87,3.63,1.6,0,3.74-.16,3.74-2.67,0-1.34-1.76-2.3-4.43-3.58l-1.71-.8c-3.36-1.49-6.25-3.2-6.25-7.1,0-4.91,4.38-7.05,9.13-7.05,4.38,0,6.62.96,8.22,2.14v5.71c-1.23-1.33-4.59-3.04-7.32-3.04s-4.33.75-4.33,2.14c0,1.02,1.33,1.82,3.15,2.62l1.92.85c4.97,2.24,7.48,3.74,7.48,7.8,0,7.48-8.44,7.85-9.29,7.85-3.63,0-6.09-.75-9.19-2.62"/>
    <path class="st5" d="M248.64,257.89c0-4.86-3.58-7.96-7.9-7.96s-7.9,3.1-7.9,7.96,3.58,8.01,7.9,8.01,7.9-3.15,7.9-8.01M227.06,257.89c0-7,4.97-13.03,13.67-13.03s13.67,6.03,13.67,13.03-4.97,13.03-13.67,13.03-13.67-6.03-13.67-13.03"/>
    <path class="st5" d="M258.14,258c0-7.37,5.29-13.09,13.83-13.09,3.79,0,7.16,1.12,8.92,2.3v5.39c-2.08-1.49-4.65-2.67-8.6-2.67-4.43,0-8.38,3.04-8.38,8.06s3.79,7.96,8.49,7.96c3.58,0,6.73-1.76,8.49-3.36v5.82c-1.44,1.02-4.38,2.51-8.92,2.51-8.49,0-13.83-5.61-13.83-12.92"/>
    <path class="st5" d="M286.82,245.39h5.77v25.1h-5.77v-25.1ZM286.24,237.17c0-1.92,1.39-3.42,3.53-3.42s3.53,1.49,3.53,3.42-1.39,3.42-3.53,3.42-3.53-1.49-3.53-3.42"/>
    <path class="st5" d="M330.33,262.48v-12.07h-2.99v-5.02h2.99v-7.48h5.77v7.48h7.74l-1.39,5.02h-6.35v12.02c0,2.78.96,3.53,3.26,3.53.69,0,2.56-.16,4.59-1.12l-1.44,5.39c-1.33.37-2.99.64-4.97.64-5.23,0-7.21-2.94-7.21-8.38"/>
    <path class="st5" d="M348.22,245.39h5.77v25.1h-5.77v-25.1ZM347.63,237.17c0-1.92,1.39-3.42,3.53-3.42s3.53,1.49,3.53,3.42-1.39,3.42-3.53,3.42-3.53-1.49-3.53-3.42"/>
    <path class="st5" d="M381.07,257.89c0-4.86-3.58-7.96-7.9-7.96s-7.9,3.1-7.9,7.96,3.58,8.01,7.9,8.01,7.9-3.15,7.9-8.01M359.49,257.89c0-7,4.97-13.03,13.67-13.03s13.67,6.03,13.67,13.03-4.97,13.03-13.67,13.03-13.67-6.03-13.67-13.03"/>
    <path class="st5" d="M391.3,245.39h5.77v1.6c2.62-1.82,5.13-2.08,6.41-2.08,9.56,0,10.09,7.21,10.09,11.96v13.62h-5.77v-13.94c0-3.95-1.18-6.57-5.02-6.57-2.35,0-4.38,1.55-5.72,3.68v16.82h-5.77v-25.1Z"/>
    <path class="st5" d="M316.4,257.8c0-1.86,0-3.73,0-5.59,0-.3-.1-.49-.34-.66-1.91-1.39-4.04-1.9-6.37-1.53-2.54.4-4.39,1.76-5.44,4.11-1,2.23-1,4.53-.29,6.84.55,1.8,1.69,3.13,3.39,3.96,1.55.76,3.2.96,4.9.72,1.46-.2,2.78-.72,3.92-1.68.16-.13.22-.27.22-.48,0-1.9,0-3.8,0-5.69M322.16,269.48c-1.9.42-3.79.85-5.7,1.28v-1.52l-.18.08c-1.29.86-2.73,1.29-4.26,1.43-2.24.2-4.44-.07-6.54-.87-3.61-1.38-6-3.94-7.1-7.63-1.1-3.69-.89-7.33.86-10.8,1.63-3.23,4.26-5.28,7.75-6.19,2.69-.7,5.39-.75,8.04.25.46.17.91.4,1.38.6v-.85h5.77v24.21Z"/>
  </g>
  <path class="st3" d="M434.72,108.26c-4.75,3.11-10.42,4.92-16.53,4.92-4.95,0-9.62-1.19-13.75-3.29-1.46,4.08-3.82,7.91-7.09,11.18-4.52,4.53-10.14,7.32-16,8.39v16.16s15.15,0,15.15,0v-17.75c0-3.87,1.47-7.75,4.42-10.71,5.91-5.92,15.5-5.92,21.42-.01,2.95,2.95,4.25,6.84,4.26,10.71v17.76s15.33,0,15.33,0v-17.76c0-6.97-2.43-13.97-7.22-19.6Z"/>
  <path class="st2" d="M390.21,106.47c1.52-1.52,3.15-2.84,4.88-3.97-4.49-5.28-7.2-12.11-7.21-19.59,0-3.59.63-7.04,1.78-10.24-4.3-2.19-9.01-3.29-13.72-3.29h-17.77s0,15.15,0,15.15h17.75c3.87,0,7.75,1.47,10.71,4.42,5.92,5.91,5.92,15.5.01,21.42-2.95,2.95-6.84,4.25-10.71,4.26h-17.76v15.33h17.76c1.81,0,3.63-.17,5.42-.5v-1.61c0-7.74,2.95-15.48,8.86-21.39Z"/>
  <path class="st0" d="M404.44,109.89c-3.59-1.83-6.76-4.35-9.35-7.39-1.73,1.13-3.36,2.45-4.88,3.97-5.9,5.91-8.86,13.65-8.86,21.39v1.61c5.86-1.07,11.48-3.86,16-8.39,3.27-3.27,5.63-7.1,7.09-11.18Z"/>
  <path class="st5" d="M406.17,98.09c9.45-1.73,19.56,1.05,26.88,8.36.59.59,1.14,1.2,1.67,1.82,1.75-1.15,3.39-2.46,4.86-3.94l12.56-12.57-10.71-10.71-12.55,12.56c-2.74,2.73-6.53,4.44-10.7,4.44-8.36,0-15.15-6.77-15.15-15.14,0-4.17,1.83-7.84,4.56-10.58l12.56-12.56-10.84-10.84-12.56,12.56c-3.12,3.13-5.56,6.94-7.08,11.19,2.76,1.41,5.36,3.26,7.67,5.57,5.52,5.51,8.46,12.62,8.84,19.84Z"/>
  <path class="st6" d="M406.17,98.09c.21,3.99-.37,8.01-1.73,11.81,4.13,2.1,8.8,3.3,13.75,3.29,6.1,0,11.78-1.82,16.53-4.92-.53-.62-1.08-1.23-1.67-1.82-7.31-7.3-17.43-10.09-26.88-8.36Z"/>
  <path class="st4" d="M395.09,102.5c3.42-2.24,7.19-3.71,11.08-4.42-.38-7.22-3.32-14.33-8.84-19.84-2.31-2.31-4.91-4.16-7.67-5.57-1.15,3.2-1.78,6.65-1.78,10.24,0,7.47,2.72,14.31,7.21,19.59Z"/>
  <path class="st1" d="M406.17,98.09c-3.89.71-7.66,2.18-11.08,4.42,2.59,3.04,5.76,5.56,9.35,7.39,1.36-3.8,1.94-7.82,1.73-11.81Z"/>
</svg>