<?xml version="1.0" encoding="UTF-8"?>
<svg id="Layer_1" xmlns="http://www.w3.org/2000/svg" xmlns:xlink="http://www.w3.org/1999/xlink" version="1.1" viewBox="0 0 500 500">
  <!-- Generator: Adobe Illustrator 29.8.2, SVG Export Plug-In . SVG Version: 2.1.1 Build 3)  -->
  <defs>
    <style>
      .st0 {
        fill: none;
      }

      .st1 {
        fill: #788fa3;
      }

      .st2 {
        fill: #1a6b99;
      }

      .st3 {
        fill: #b8c4d1;
      }

      .st4 {
        clip-path: url(#clippath);
      }
    </style>
    <clipPath id="clippath">
      <rect class="st0" x="72.11" y="85.74" width="355.78" height="369.74"/>
    </clipPath>
  </defs>
  <g class="st4">
    <path class="st1" d="M390.33,342.13h-184.54c2.82,9.7,5.52,18.48,7.05,23.6,6.81,22.76,14.42,43.99,30.51,62.01,40.78,45.7,129.05,34.16,145.17-29.08,3.59-14.11,4.3-35.92,3.65-56.61-.14,0-.28.03-.42.04-.47.02-.94.04-1.41.04"/>
    <path class="st2" d="M390.33,85.73H109.67c-20.66,0-37.56,16.9-37.56,37.56v181.28c0,20.66,16.9,37.56,37.56,37.56h96.12c-.15-.52-.31-1.04-.46-1.57-4.94-17.07-10.13-36.56-10.16-44.32-.11-22.28,25.67-15.34,33.93-1.75l12.86,24.02v-121.34c0-7.62,12.82-17.26,20.63-16.71,8.67.61,19.6,10.77,19.6,19.39v69.05c11.85-11.98,32.64-10.36,37.57,6.71,4.68-1.21,8.34-5.21,13.34-6.15,11-2.06,22.38,5.99,24.21,16.87,16.42-9.2,29.77-1.15,32,16.93,1.23,10,2.32,23.33,2.81,37.26.02.51.03,1.02.05,1.53,19.81-.97,35.73-17.45,35.73-37.49V123.29c0-20.66-16.9-37.56-37.56-37.56"/>
    <path class="st3" d="M389.31,303.26c-2.22-18.08-15.58-26.13-32-16.93-1.83-10.88-13.21-18.93-24.21-16.87-5.01.94-8.67,4.94-13.34,6.15-4.92-17.06-25.71-18.68-37.57-6.71v-69.05c0-8.62-10.93-18.78-19.6-19.39-7.81-.55-20.63,9.09-20.63,16.71v121.34l-12.86-24.02c-8.26-13.6-34.04-20.54-33.93,1.75.04,7.75,5.22,27.25,10.16,44.32.15.53.31,1.04.46,1.57h184.54c.48,0,.94-.02,1.41-.04.14,0,.28-.03.42-.04-.02-.51-.03-1.02-.05-1.53-.49-13.93-1.58-27.26-2.81-37.26"/>
  </g>
</svg>