<?xml version="1.0" encoding="UTF-8"?>
<svg id="Layer_1" xmlns="http://www.w3.org/2000/svg" xmlns:xlink="http://www.w3.org/1999/xlink" version="1.1" viewBox="0 0 500 500">
  <!-- Generator: Adobe Illustrator 29.8.2, SVG Export Plug-In . SVG Version: 2.1.1 Build 3)  -->
  <defs>
    <style>
      .st0 {
        fill: none;
      }

      .st1 {
        fill: #bdc7d1;
      }

      .st2 {
        fill: #f2f5f5;
      }

      .st3 {
        clip-path: url(#clippath);
      }

      .st4 {
        fill: #7891a3;
      }
    </style>
    <clipPath id="clippath">
      <rect class="st0" x="66.69" y="44.53" width="366.62" height="410.95"/>
    </clipPath>
  </defs>
  <g class="st3">
    <path class="st4" d="M198.74,242.39c3.92.72,7.98,1.04,12.13.91,29.57-.94,53.65-25.02,54.59-54.59.07-2.12.01-4.21-.14-6.27-18.3,5.48-35.09,14.97-47.98,28.69-9.13,9.72-15.15,20.25-18.6,31.26"/>
    <path class="st4" d="M429.35,329.98c-9.23-13.05-15.93-19.31-23.87-36.88-2.07-4.57,9.22-38.99-.41-60.52-10.12-22.63-30-38.55-53.71-47.43v28.69c0,2.6-2.11,4.71-4.71,4.71h-20.8c-2.06,0-3.87,1.34-4.49,3.31-2.13,6.86-4.88,13.45-8.17,19.7-.96,1.82-.62,4.06.83,5.51l14.71,14.71c1.84,1.84,1.84,4.82,0,6.66l-38.15,38.15c-1.84,1.84-4.82,1.84-6.66,0l-14.71-14.71c-1.46-1.46-3.69-1.79-5.52-.83-6.25,3.29-12.84,6.04-19.7,8.17-1.97.61-3.31,2.43-3.31,4.49v20.8c0,2.6-2.1,4.71-4.71,4.71h-21.96c1.86,3.29,3.83,6.55,5.91,9.78,12.22,18.97,14.85,37.57,13.7,59.57-.22,4.25-7.48,46.32-12.12,56.92h132.07c.51-9.92-2.41-30.36,3.76-33.66,2.84-1.52,6.29-.63,10.26-.27,5.18.47,8.97.62,13.5.33,9.38-.59,19.4-1.22,23.14-11.82,1.34-3.81,6.02-52.92,7.09-56.58.75-2.58,5.37-3.84,8.69-5.2,5.38-2.2,12.91-3.69,13.27-9.74.2-3.38-2-5.79-3.95-8.55"/>
    <path class="st1" d="M198.74,242.39c-26.86-4.94-47.06-28.89-46.15-57.38.95-29.57,25.02-53.65,54.59-54.59,30.53-.97,55.83,22.3,58.14,52.02,27.94-8.36,59.4-7.29,86.04,2.7v-25.25c0-2.6-2.11-4.71-4.71-4.71h-20.8c-2.06,0-3.87-1.34-4.49-3.31-2.13-6.86-4.88-13.45-8.17-19.7-.96-1.82-.62-4.06.83-5.51l14.71-14.71c1.84-1.84,1.84-4.82,0-6.66l-38.15-38.15c-1.84-1.84-4.82-1.84-6.66,0l-14.71,14.71c-1.46,1.46-3.69,1.79-5.52.83-6.26-3.29-12.84-6.04-19.7-8.17-1.97-.61-3.31-2.43-3.31-4.49v-20.8c0-2.6-2.1-4.71-4.71-4.71h-53.95c-2.6,0-4.71,2.11-4.71,4.71v20.8c0,2.06-1.34,3.88-3.31,4.49-6.86,2.13-13.45,4.88-19.7,8.17-1.83.96-4.06.62-5.51-.83l-14.71-14.71c-1.84-1.84-4.82-1.84-6.65,0l-38.15,38.15c-1.84,1.84-1.84,4.82,0,6.66l14.71,14.71c1.46,1.46,1.79,3.69.83,5.51-3.29,6.26-6.04,12.85-8.17,19.7-.61,1.97-2.43,3.31-4.48,3.31h-20.8c-2.6,0-4.71,2.11-4.71,4.71v53.95c0,2.6,2.1,4.71,4.71,4.71h20.8c2.06,0,3.88,1.34,4.48,3.31,2.14,6.86,4.88,13.45,8.17,19.7.96,1.82.63,4.06-.83,5.51l-14.71,14.71c-1.84,1.84-1.84,4.82,0,6.66l38.15,38.15c1.83,1.84,4.81,1.84,6.65,0l14.71-14.71c1.46-1.46,3.69-1.79,5.51-.83,6.26,3.29,12.84,6.04,19.7,8.17,1.97.61,3.31,2.43,3.31,4.49v20.8c0,2.6,2.11,4.71,4.71,4.71h31.99c-16.31-28.72-23.92-59.29-15.3-86.81"/>
    <path class="st2" d="M240.7,324.49v-20.8c0-2.06,1.34-3.88,3.31-4.49,6.86-2.13,13.45-4.88,19.7-8.17,1.82-.96,4.06-.62,5.52.83l14.71,14.71c1.84,1.84,4.82,1.84,6.66,0l38.15-38.15c1.84-1.84,1.84-4.82,0-6.66l-14.71-14.71c-1.46-1.46-1.79-3.69-.83-5.51,3.29-6.26,6.04-12.85,8.17-19.7.61-1.97,2.43-3.31,4.49-3.31h20.8c2.6,0,4.71-2.11,4.71-4.71v-28.69c-26.64-9.99-58.11-11.06-86.04-2.7.16,2.06.21,4.15.14,6.27-.94,29.57-25.02,53.65-54.59,54.59-4.15.13-8.22-.19-12.13-.91-8.62,27.52-1.01,58.09,15.3,86.81h21.96c2.6,0,4.71-2.11,4.71-4.71"/>
  </g>
</svg>