<?xml version="1.0" encoding="UTF-8"?>
<svg id="Layer_1" xmlns="http://www.w3.org/2000/svg" xmlns:xlink="http://www.w3.org/1999/xlink" version="1.1" viewBox="0 0 500 500">
  <!-- Generator: Adobe Illustrator 29.8.2, SVG Export Plug-In . SVG Version: 2.1.1 Build 3)  -->
  <defs>
    <style>
      .st0 {
        fill: none;
      }

      .st1 {
        fill: #3dad4a;
      }

      .st2 {
        fill: #7de587;
      }

      .st3 {
        fill: #d1f29e;
      }

      .st4 {
        clip-path: url(#clippath);
      }
    </style>
    <clipPath id="clippath">
      <rect class="st0" x="35.96" y="113.14" width="417.97" height="273.73"/>
    </clipPath>
  </defs>
  <g class="st4">
    <path class="st2" d="M322.41,309.2c-3.81,4.19-10.21,4.21-14.05.04-7.12-7.75-16.28-10.13-17.51-10.41h-8.89c.75,18.04-5.72,36.47-19.3,49.52-36.82,35.4-98.96,14.23-106.89-35.84-3.85-24.26,5.39-45.08,20.81-58.49v-32.19c-47.71,10.35-97.75,36.63-131.12,67.51-5.11,4.73-12.77,10.53-7.99,18.14,3.32,5.27,22.87,20,28.86,24.4,96.16,70.52,196.3,73.82,295.23,6.24,10.58-7.22,24.11-17.13,33.23-25.94,6.12-5.91,7.25-9.58,5.27-13.36h-60.42c-1.23.28-10.22,2.65-17.25,10.37"/>
    <path class="st2" d="M192.46,306.37c3.29,20.78,29.07,29.56,44.36,14.87,6.1-5.87,8.73-14.34,7.86-22.4h-52.39c-.27,2.4-.24,4.91.17,7.53"/>
    <path class="st1" d="M192.28,298.83c2.23-19.82,26.09-31.07,43.22-17.23,5.42,4.38,8.45,10.67,9.17,17.23h37.3c-.72-17.4-8.16-34.45-22.46-46-27.08-21.87-61.17-17.73-82.92,1.19v44.81h15.7Z"/>
    <path class="st3" d="M392.27,290.2c-45.51-42.32-120.85-76.29-183.73-72.82-10.38.57-21.11,2.11-31.95,4.46v32.18c21.76-18.92,55.84-23.07,82.92-1.19,14.3,11.55,21.74,28.6,22.46,46h8.89c1.23.28,10.39,2.66,17.51,10.41,3.83,4.17,10.23,4.15,14.05-.04,7.03-7.72,16.02-10.09,17.25-10.37h60.42c-1.35-2.58-4.13-5.21-7.81-8.63"/>
    <path class="st3" d="M235.5,281.6c-17.13-13.83-41-2.59-43.22,17.23h52.39c-.71-6.56-3.74-12.85-9.17-17.23"/>
    <path class="st1" d="M339.93,113.14c-10.21,0-17.28,3.5-21.21,8.48-1.77,2.25-5.17,2.25-6.94,0-3.92-4.99-11-8.48-21.2-8.48h-114v108.71c10.85-2.35,21.57-3.89,31.95-4.46,62.88-3.47,138.22,30.5,183.73,72.82,3.68,3.42,6.46,6.05,7.81,8.63h53.86V113.14h-114Z"/>
  </g>
</svg>