<?xml version="1.0" encoding="UTF-8"?>
<svg id="Layer_1" xmlns="http://www.w3.org/2000/svg" version="1.1" viewBox="0 0 500 500">
  <!-- Generator: Adobe Illustrator 29.8.2, SVG Export Plug-In . SVG Version: 2.1.1 Build 3)  -->
  <defs>
    <style>
      .st0 {
        fill: #ffbee0;
      }

      .st1 {
        fill: #c9108d;
      }

      .st2 {
        fill: #fa87e9;
      }
    </style>
  </defs>
  <path class="st1" d="M283.43,342.54l-48.03,7.36c-8.57,1.31-15.87-6.22-14.3-14.74l8.57-46.52c.46-2.51,1.68-4.82,3.48-6.63l119.38-119.38v-51.14c0-19.35-15.83-35.18-35.18-35.18h-169.79c-19.35,0-35.18,15.83-35.18,35.18v262.87c0,19.35,15.83,35.18,35.18,35.18h169.79c19.35,0,35.18-15.83,35.18-35.18v-97.49l-62.1,62.1c-1.9,1.9-4.35,3.14-7,3.55Z"/>
  <path class="st2" d="M465.64,145.97l-39.3-39.3c-4.92-4.92-12.9-4.92-17.82,0l-55.99,55.99v114.25l113.11-113.11c4.92-4.92,4.92-12.9,0-17.82Z"/>
  <path class="st0" d="M233.16,282.02c-1.81,1.81-3.02,4.12-3.48,6.63l-8.57,46.52c-1.57,8.52,5.73,16.05,14.3,14.74l48.03-7.36c2.65-.41,5.1-1.65,7-3.55l62.1-62.1v-114.25l-119.38,119.38Z"/>
</svg>